<svg width="101" height="25" viewBox="0 0 101 25" fill="none" xmlns="http://www.w3.org/2000/svg">
<path fill-rule="evenodd" clip-rule="evenodd" d="M-3.05176e-05 3.89256C-3.05176e-05 3.54138 0.284661 3.25668 0.635847 3.25668H8.74328C13.5721 3.25668 17.4866 7.1712 17.4866 12C17.4866 16.8288 13.5721 20.7433 8.74327 20.7433H6.68726L6.68706 20.7431H7.15347V16.4975C7.65069 16.6733 8.18576 16.7689 8.74317 16.7689C11.3771 16.7689 13.5122 14.6337 13.5122 11.9998C13.5122 9.36592 11.3771 7.23073 8.74317 7.23073C8.18576 7.23073 7.65069 7.32636 7.15347 7.5021V7.23073H3.97409V11.9998V18.0825L-3.05176e-05 14.1851V3.89256Z" fill="#019AFF"/>
<ellipse cx="8.74324" cy="11.9999" rx="1.58969" ry="1.58969" fill="#7E7E7E"/>
<path d="M34.8435 9.77183C34.7142 10.5602 34.4105 11.284 33.9323 11.9432C33.4541 12.5894 32.8014 13.1128 31.9742 13.5135C31.16 13.9142 30.1971 14.1145 29.0856 14.1145H27.0305L26.1581 19H22.843L25.2469 5.39039H30.6171C32.0388 5.39039 33.1116 5.70704 33.8353 6.34035C34.5591 6.96073 34.921 7.80729 34.921 8.88003C34.921 9.20315 34.8952 9.50042 34.8435 9.77183ZM29.2794 11.5167C30.5202 11.5167 31.2504 10.935 31.4701 9.77183C31.496 9.56504 31.5089 9.41641 31.5089 9.32593C31.5089 8.91235 31.3732 8.59569 31.1018 8.37597C30.8433 8.14333 30.4426 8.02701 29.8998 8.02701H28.0968L27.4958 11.5167H29.2794ZM35.251 13.5717C35.4449 12.4602 35.8262 11.4843 36.3949 10.6442C36.9636 9.80414 37.6486 9.15791 38.4499 8.70555C39.2512 8.25319 40.0978 8.02701 40.9896 8.02701C41.7521 8.02701 42.3919 8.18211 42.9089 8.4923C43.4259 8.80249 43.8007 9.20961 44.0333 9.71367L44.3047 8.18211H47.6199L45.7006 19H42.3854L42.6762 17.4684C42.2626 17.9725 41.7392 18.3796 41.1059 18.6898C40.4726 19 39.7747 19.1551 39.0121 19.1551C38.2496 19.1551 37.571 18.9806 36.9765 18.6316C36.3949 18.2827 35.9425 17.7915 35.6194 17.1582C35.2963 16.512 35.1347 15.7559 35.1347 14.89C35.1347 14.4764 35.1735 14.037 35.251 13.5717ZM43.3548 13.5911C43.3935 13.3584 43.4129 13.1452 43.4129 12.9513C43.4129 12.318 43.2255 11.8204 42.8507 11.4585C42.4888 11.0966 42.0235 10.9157 41.4549 10.9157C40.7957 10.9157 40.1947 11.1548 39.6519 11.633C39.109 12.0983 38.7665 12.7445 38.6244 13.5717C38.5856 13.8043 38.5662 14.0176 38.5662 14.2114C38.5662 14.8447 38.7472 15.3488 39.109 15.7236C39.4839 16.0855 39.9491 16.2664 40.5049 16.2664C41.1641 16.2664 41.765 16.0273 42.3079 15.5491C42.8507 15.0709 43.1997 14.4182 43.3548 13.5911ZM52.4804 8.18211L53.7987 14.9481L57.4822 8.18211H61.0688L51.4723 24.1375H47.9051L51.356 18.6316L48.7969 8.18211H52.4804Z" fill="#019AFF"/>
<path d="M67.851 5.39039C69.1047 5.39039 70.1839 5.61657 71.0886 6.06893C72.0063 6.50837 72.7042 7.13521 73.1824 7.94946C73.6736 8.75079 73.9191 9.69428 73.9191 10.78C73.9191 11.1548 73.8739 11.6265 73.7834 12.1952C73.5508 13.5264 73.0467 14.709 72.2713 15.743C71.5087 16.777 70.5329 17.5783 69.3438 18.147C68.1677 18.7157 66.8688 19 65.4471 19H60.3483L62.7523 5.39039H67.851ZM65.7379 16.1695C66.9916 16.1695 68.032 15.8205 68.8592 15.1226C69.6863 14.4247 70.2033 13.4489 70.4101 12.1952C70.4747 11.8075 70.507 11.4843 70.507 11.2259C70.507 10.2694 70.2162 9.53273 69.6346 9.01574C69.053 8.48583 68.2259 8.22088 67.1531 8.22088H65.5634L64.1675 16.1695H65.7379ZM74.7443 13.5717C74.9382 12.4602 75.3194 11.4843 75.8881 10.6442C76.4568 9.80414 77.1418 9.15791 77.9431 8.70555C78.7445 8.25319 79.591 8.02701 80.4828 8.02701C81.2454 8.02701 81.8851 8.18211 82.4021 8.4923C82.9191 8.80249 83.2939 9.20961 83.5266 9.71367L83.798 8.18211H87.1131L85.1938 19H81.8787L82.1695 17.4684C81.7559 17.9725 81.2324 18.3796 80.5991 18.6898C79.9658 19 79.2679 19.1551 78.5054 19.1551C77.7428 19.1551 77.0643 18.9806 76.4697 18.6316C75.8881 18.2827 75.4358 17.7915 75.1126 17.1582C74.7895 16.512 74.628 15.7559 74.628 14.89C74.628 14.4764 74.6667 14.037 74.7443 13.5717ZM82.848 13.5911C82.8868 13.3584 82.9062 13.1452 82.9062 12.9513C82.9062 12.318 82.7188 11.8204 82.344 11.4585C81.9821 11.0966 81.5168 10.9157 80.9481 10.9157C80.2889 10.9157 79.688 11.1548 79.1451 11.633C78.6023 12.0983 78.2598 12.7445 78.1176 13.5717C78.0788 13.8043 78.0595 14.0176 78.0595 14.2114C78.0595 14.8447 78.2404 15.3488 78.6023 15.7236C78.9771 16.0855 79.4424 16.2664 79.9981 16.2664C80.6573 16.2664 81.2583 16.0273 81.8011 15.5491C82.344 15.0709 82.6929 14.4182 82.848 13.5911ZM91.9736 8.18211L93.292 14.9481L96.9755 8.18211H100.562L90.9655 24.1375H87.3983L90.8492 18.6316L88.2901 8.18211H91.9736Z" fill="#7E7E7E"/>
</svg>
